<svg width="31" height="30" viewBox="0 0 31 30" fill="none" xmlns="http://www.w3.org/2000/svg">
<g filter="url(#filter0_d_1922_1636)">
<path d="M25.4628 16.5169L22.2687 13.3215C21.8398 12.8948 21.2654 12.6596 20.6516 12.6596C20.0129 12.6596 19.4098 12.9111 18.9538 13.3674L17.7104 14.6104C16.7443 14.0734 15.4602 13.3349 14.1271 12.0017C12.7954 10.6696 12.0568 9.38927 11.517 8.41794L12.7615 7.17435C13.6868 6.24717 13.7057 4.75968 12.8039 3.85865L9.61047 0.665171C9.18271 0.236229 8.60832 0 7.99297 0C7.36848 0 6.77773 0.240434 6.32438 0.678061C6.05012 0.898931 4.67379 2.1139 4.16084 4.61954C3.44264 8.12668 5.09277 11.5011 9.85648 16.2667C15.1779 21.5865 19.7209 22 20.9865 22C21.25 22 21.4089 21.9837 21.4513 21.9788C23.9331 21.6879 24.8217 20.5857 25.4705 19.781C26.3112 18.738 26.3083 17.3656 25.4628 16.5169ZM24.4029 18.9202C23.7931 19.6767 23.2171 20.391 21.2918 20.6167C21.2908 20.6168 21.1855 20.6286 20.9865 20.6286C19.8542 20.6286 15.7748 20.2441 10.8262 15.297C6.43317 10.9022 4.89128 7.88834 5.50425 4.89453C5.95166 2.70904 7.13948 1.78013 7.18564 1.74484L7.2266 1.71458L7.26253 1.67856C7.46082 1.48045 7.72018 1.3713 7.99288 1.3713C8.24118 1.3713 8.47083 1.46436 8.64013 1.63422L11.8343 4.82843C12.2018 5.19557 12.1822 5.81339 11.7912 6.20521L10.3838 7.61143L10.3607 7.63566C9.99388 8.03964 10.037 8.5856 10.2391 8.94113C10.8221 9.99319 11.6206 11.4341 13.1572 12.9711C14.6887 14.5026 16.1274 15.3005 17.1766 15.8824C17.2816 15.9413 17.4984 16.0402 17.7699 16.0402C18.0904 16.0402 18.3847 15.9046 18.6025 15.6573L19.9234 14.3368C20.1206 14.1395 20.3791 14.0308 20.6514 14.0308C20.9003 14.0308 21.1311 14.1242 21.3 14.2922L24.492 17.4855C24.8974 17.8924 24.73 18.5145 24.4029 18.9202Z" fill="white"/>
<path d="M17.3882 3.35972C18.5663 3.4953 19.9535 4.20892 20.9222 5.1777C21.8999 6.15543 22.6153 7.55672 22.7445 8.74764C22.7826 9.09897 23.0797 9.35933 23.4253 9.35933C23.45 9.35933 23.475 9.35796 23.5001 9.35531C23.8765 9.31444 24.1486 8.97619 24.1077 8.59972C23.9444 7.09431 23.0952 5.41155 21.8919 4.2081C20.6998 3.01589 19.0342 2.16889 17.545 1.99748C17.169 1.95387 16.8288 2.22411 16.7855 2.60021C16.7421 2.97631 17.0119 3.31639 17.3882 3.35972Z" fill="white"/>
<path d="M16.7476 6.23198C17.3848 6.30539 18.2666 6.77803 18.8443 7.35571C19.4269 7.93842 19.9005 8.82867 19.9702 9.47272C20.0084 9.82414 20.3055 10.0845 20.6511 10.0845C20.6757 10.0845 20.7007 10.0831 20.7257 10.0805C21.1022 10.0396 21.3744 9.70136 21.3335 9.3249C21.2143 8.2253 20.4843 7.0565 19.8138 6.38602C19.1494 5.72149 17.992 4.99498 16.9044 4.86964C16.5278 4.82585 16.1881 5.09618 16.1448 5.47228C16.1015 5.84847 16.3714 6.18865 16.7476 6.23198Z" fill="white"/>
</g>
<defs>
<filter id="filter0_d_1922_1636" x="0" y="0" width="30.099" height="30" filterUnits="userSpaceOnUse" color-interpolation-filters="sRGB">
<feFlood flood-opacity="0" result="BackgroundImageFix"/>
<feColorMatrix in="SourceAlpha" type="matrix" values="0 0 0 0 0 0 0 0 0 0 0 0 0 0 0 0 0 0 127 0" result="hardAlpha"/>
<feOffset dy="4"/>
<feGaussianBlur stdDeviation="2"/>
<feComposite in2="hardAlpha" operator="out"/>
<feColorMatrix type="matrix" values="0 0 0 0 0 0 0 0 0 0 0 0 0 0 0 0 0 0 0.25 0"/>
<feBlend mode="normal" in2="BackgroundImageFix" result="effect1_dropShadow_1922_1636"/>
<feBlend mode="normal" in="SourceGraphic" in2="effect1_dropShadow_1922_1636" result="shape"/>
</filter>
</defs>
</svg>
